<svg width="36" height="36" viewBox="0 0 36 36" fill="none" xmlns="http://www.w3.org/2000/svg">
<path d="M21.558 8.46191C21.3342 11.2236 20.1352 13.8157 18.1755 15.7744C16.2157 13.8157 15.0167 11.2236 14.793 8.46191C15.0173 5.70032 16.2162 3.10845 18.1755 1.14941C20.1348 3.10845 21.3337 5.70032 21.558 8.46191Z" stroke="#C3E9D8" stroke-width="1.5" stroke-linecap="round" stroke-linejoin="round"></path>
<path d="M26.2215 22.0142C23.5585 22.7789 20.7103 22.5715 18.186 21.4292C19.3277 18.9041 21.3299 16.8673 23.835 15.6827C26.4982 14.918 29.3466 15.1259 31.8705 16.2692C30.7293 18.7941 28.7269 20.8305 26.2215 22.0142Z" stroke="#C3E9D8" stroke-width="1.5" stroke-linecap="round" stroke-linejoin="round"></path>
<path d="M26.2215 33.2642C23.5585 34.0289 20.7103 33.8215 18.186 32.6792C19.3277 30.1541 21.3299 28.1173 23.835 26.9327C26.4982 26.168 29.3466 26.3759 31.8705 27.5192C30.7293 30.0441 28.7269 32.0805 26.2215 33.2642Z" stroke="#C3E9D8" stroke-width="1.5" stroke-linecap="round" stroke-linejoin="round"></path>
<path d="M10.1445 22.0142C12.8076 22.7789 15.6558 22.5716 18.18 21.4292C17.0392 18.9042 15.0374 16.8672 12.5325 15.6827C9.87018 14.9194 7.0232 15.1272 4.5 16.2692C5.6408 18.7929 7.64133 20.8291 10.1445 22.0142Z" stroke="#C3E9D8" stroke-width="1.5" stroke-linecap="round" stroke-linejoin="round"></path>
<path d="M10.1445 33.2642C12.8076 34.0289 15.6558 33.8216 18.18 32.6792C17.0392 30.1542 15.0374 28.1172 12.5325 26.9327C9.87018 26.1694 7.0232 26.3772 4.5 27.5192C5.6408 30.0429 7.64133 32.0791 10.1445 33.2642Z" stroke="#C3E9D8" stroke-width="1.5" stroke-linecap="round" stroke-linejoin="round"></path>
<path d="M18.1785 15.7744L18.1905 34.8994" stroke="#C3E9D8" stroke-width="1.5" stroke-linecap="round" stroke-linejoin="round"></path>
</svg>