<svg width="36" height="36" viewBox="0 0 36 36" fill="none" xmlns="http://www.w3.org/2000/svg">
<path d="M13.5647 10.1943C13.254 10.1943 13.0022 9.94249 13.0022 9.63184C13.0022 9.32117 13.254 9.06934 13.5647 9.06934" stroke="#C3E9D8" stroke-width="1.5"></path>
<path d="M13.5647 10.1943C13.8754 10.1943 14.1272 9.94249 14.1272 9.63184C14.1272 9.32117 13.8754 9.06934 13.5647 9.06934" stroke="#C3E9D8" stroke-width="1.5"></path>
<path d="M8.37295 1.125C7.81128 1.125 7.26224 1.29157 6.79526 1.60365C6.32826 1.91573 5.96431 2.35928 5.74945 2.87822C5.53458 3.39716 5.47844 3.96816 5.58812 4.51901C5.69781 5.06987 5.9684 5.57582 6.36566 5.97287C6.76292 6.36992 7.269 6.64023 7.81991 6.74963C8.37083 6.85902 8.9418 6.80258 9.46062 6.58743C9.97944 6.37229 10.4228 6.0081 10.7346 5.54096C11.0465 5.0738 11.2127 4.52466 11.2125 3.963C11.2125 3.59019 11.139 3.22103 10.9963 2.8766C10.8536 2.53218 10.6444 2.21925 10.3807 1.9557C10.117 1.69215 9.80396 1.48313 9.45947 1.3406C9.11498 1.19807 8.74576 1.1248 8.37295 1.125Z" stroke="#C3E9D8" stroke-width="1.5" stroke-linecap="round" stroke-linejoin="round"></path>
<path d="M15.9 1.2555C16.5966 1.16896 17.298 1.12538 18 1.125C21.7187 1.12605 25.3328 2.35584 28.2803 4.62312C31.2278 6.8904 33.3435 10.0681 34.2986 13.6621C35.2535 17.256 34.9941 21.0648 33.5607 24.496C32.1275 27.9274 29.6004 30.789 26.3727 32.6358C23.145 34.4825 19.3976 35.211 15.7131 34.7079C12.0287 34.2048 8.61366 32.4984 5.99921 29.8539C3.38477 27.2095 1.71738 23.7753 1.25638 20.0853C0.795367 16.3953 1.56656 12.6564 3.45003 9.45" stroke="#C3E9D8" stroke-width="1.5" stroke-linecap="round" stroke-linejoin="round"></path>
<path d="M4.75952 28.4626C14.004 21.1381 23.301 28.4806 31.2255 28.4806" stroke="#C3E9D8" stroke-width="1.5" stroke-linecap="round" stroke-linejoin="round"></path>
<path d="M10.7595 15.4648C10.386 18.2053 13.032 20.2483 13.002 25.2403" stroke="#C3E9D8" stroke-width="1.5" stroke-linecap="round" stroke-linejoin="round"></path>
<path d="M22.0155 10.0195C20.0205 14.572 26.25 21.751 23.3835 26.986" stroke="#C3E9D8" stroke-width="1.5" stroke-linecap="round" stroke-linejoin="round"></path>
<path d="M17.8936 12.8997C19.3576 16.9752 25.1086 15.9837 25.5091 11.5137" stroke="#C3E9D8" stroke-width="1.5" stroke-linecap="round" stroke-linejoin="round"></path>
<path d="M7.69946 19.0634C9.27746 23.0999 15 21.9419 15.273 17.4629" stroke="#C3E9D8" stroke-width="1.5" stroke-linecap="round" stroke-linejoin="round"></path>
<path d="M19.4146 19.9286C21.0646 23.9336 26.7646 22.6901 26.9626 18.2051" stroke="#C3E9D8" stroke-width="1.5" stroke-linecap="round" stroke-linejoin="round"></path>
</svg>