<svg width="32" height="32" viewBox="0 0 32 32" fill="none" xmlns="http://www.w3.org/2000/svg">
<path d="M10.0293 3.69531C8.4618 4.63945 7.25332 6.07873 6.59467 7.78598C5.36595 7.89123 4.18409 8.3069 3.16 8.99398C0.16 10.994 1.16 15.994 1.16 15.994C2.10953 16.1579 3.07652 16.196 4.036 16.1073" stroke="#C3E9D8" stroke-width="1.5" stroke-linecap="round" stroke-linejoin="round"></path>
<path d="M13 24.9941L14 25.9941" stroke="#C3E9D8" stroke-width="1.5" stroke-linecap="round" stroke-linejoin="round"></path>
<path d="M19 24.9941L18 25.9941" stroke="#C3E9D8" stroke-width="1.5" stroke-linecap="round" stroke-linejoin="round"></path>
<path d="M22 4C22 2.34267 19.3133 1 16 1C12.6867 1 10 2.34267 10 4C10 6 13.6 5 13.6 5C13.6123 5.29403 13.6859 5.58224 13.8161 5.84609C13.9465 6.10995 14.1307 6.34359 14.3567 6.53199C14.5828 6.72039 14.8457 6.85936 15.1288 6.93996C15.4119 7.02056 15.7085 7.04101 16 7C16.2915 7.04101 16.5881 7.02056 16.8712 6.93996C17.1543 6.85936 17.4172 6.72039 17.6433 6.53199C17.8693 6.34359 18.0535 6.10995 18.1839 5.84609C18.3141 5.58224 18.3877 5.29403 18.4 5C18.4 5 22 6 22 4Z" stroke="#C3E9D8" stroke-width="1.5" stroke-linecap="round" stroke-linejoin="round"></path>
<path d="M8.65419 4.74933L7.16086 4C5.89182 3.31112 4.84974 2.26904 4.16086 1C4.16086 1 2.16086 4 3.16086 6C3.59006 6.82564 4.18355 7.5548 4.90486 8.14267" stroke="#C3E9D8" stroke-width="1.5" stroke-linecap="round" stroke-linejoin="round"></path>
<path d="M24.5 15.2803C24.5 31.9936 17.3453 30.9883 16.872 30.9883H15.128C14.6533 30.9883 7.5 31.9883 7.5 15.2803" stroke="#C3E9D8" stroke-width="1.5" stroke-linecap="round" stroke-linejoin="round"></path>
<path d="M21.9707 3.69531C23.5383 4.63945 24.7467 6.07873 25.4054 7.78598C26.6342 7.89123 27.816 8.3069 28.84 8.99398C31.84 10.994 30.84 15.994 30.84 15.994C29.8906 16.1579 28.9235 16.196 27.964 16.1073" stroke="#C3E9D8" stroke-width="1.5" stroke-linecap="round" stroke-linejoin="round"></path>
<path d="M23.7195 23.4609L23.0182 22.9929C20.9076 21.6894 18.476 20.999 15.9955 20.999C13.5148 20.999 11.0833 21.6894 8.97282 22.9929L8.27148 23.4609" stroke="#C3E9D8" stroke-width="1.5" stroke-linecap="round" stroke-linejoin="round"></path>
<path d="M23.3418 4.74933L24.8405 4C26.1095 3.31112 27.1515 2.26904 27.8405 1C27.8405 1 29.8405 4 28.8405 6C28.4113 6.82564 27.8178 7.5548 27.0965 8.14267" stroke="#C3E9D8" stroke-width="1.5" stroke-linecap="round" stroke-linejoin="round"></path>
<path d="M11.5137 12C11.2375 12 11.0137 11.7761 11.0137 11.5C11.0137 11.2239 11.2375 11 11.5137 11" stroke="#C3E9D8" stroke-width="1.5"></path>
<path d="M11.5137 12C11.7898 12 12.0137 11.7761 12.0137 11.5C12.0137 11.2239 11.7898 11 11.5137 11" stroke="#C3E9D8" stroke-width="1.5"></path>
<path d="M20.5137 12C20.2375 12 20.0137 11.7761 20.0137 11.5C20.0137 11.2239 20.2375 11 20.5137 11" stroke="#C3E9D8" stroke-width="1.5"></path>
<path d="M20.5137 12C20.7898 12 21.0137 11.7761 21.0137 11.5C21.0137 11.2239 20.7898 11 20.5137 11" stroke="#C3E9D8" stroke-width="1.5"></path>
</svg>