<svg width="36" height="36" viewBox="0 0 36 36" fill="none" xmlns="http://www.w3.org/2000/svg">
<path d="M22.3904 10.1745C22.8985 9.39291 23.5893 8.74688 24.4031 8.29225C25.217 7.83761 26.1293 7.58807 27.0612 7.5652C27.9931 7.54233 28.9166 7.74682 29.7518 8.16099C30.5869 8.57515 31.3086 9.18652 31.8544 9.94223C32.4002 10.6979 32.7537 11.5752 32.8844 12.4982C33.015 13.4212 32.9188 14.3622 32.6042 15.2397C32.2895 16.1172 31.7658 16.9048 31.0784 17.5345C30.391 18.1641 29.5606 18.6168 28.6589 18.8535" stroke="#C3E9D8" stroke-width="1.5" stroke-linecap="round" stroke-linejoin="round"></path>
<path d="M18.1336 23.4004C17.8352 22.7053 17.6821 21.9564 17.6836 21.1999C17.6836 20.0649 18.0202 18.9553 18.6508 18.0115C19.2814 17.0677 20.1777 16.3322 21.2264 15.8978C22.2751 15.4634 23.429 15.3498 24.5422 15.5712C25.6555 15.7927 26.6781 16.3392 27.4807 17.1419C28.2833 17.9445 28.8299 18.9671 29.0513 20.0803C29.2728 21.1936 29.1591 22.3475 28.7248 23.3962C28.2904 24.4448 27.5548 25.3411 26.611 25.9717C25.6673 26.6024 24.5577 26.9389 23.4226 26.9389" stroke="#C3E9D8" stroke-width="1.5" stroke-linecap="round" stroke-linejoin="round"></path>
<path d="M7.51489 18.8996C6.59335 18.6879 5.7384 18.2517 5.02605 17.6299C4.3137 17.0081 3.76603 16.22 3.43172 15.3355C3.0974 14.451 2.98681 13.4976 3.10977 12.5601C3.23272 11.6226 3.58542 10.7299 4.13651 9.96159C4.6876 9.19323 5.42 8.57294 6.26859 8.15586C7.11719 7.73878 8.0557 7.53783 9.00067 7.57089C9.94565 7.60395 10.8678 7.86998 11.6852 8.34534C12.5026 8.82069 13.1898 9.49065 13.6859 10.2956" stroke="#C3E9D8" stroke-width="1.5" stroke-linecap="round" stroke-linejoin="round"></path>
<path d="M12.7619 26.937C11.2399 26.937 9.78013 26.3323 8.70386 25.2561C7.62759 24.1798 7.02295 22.7201 7.02295 21.198C7.02295 19.6759 7.62759 18.2162 8.70386 17.1399C9.78013 16.0636 11.2399 15.459 12.7619 15.459C13.9019 15.4578 15.0176 15.7887 15.9725 16.4112C16.9275 17.0338 17.6805 17.921 18.1395 18.9645" stroke="#C3E9D8" stroke-width="1.5" stroke-linecap="round" stroke-linejoin="round"></path>
<path d="M12.3525 29.1365C12.3525 30.6585 12.9572 32.1183 14.0335 33.1945C15.1097 34.2708 16.5695 34.8755 18.0915 34.8755C19.6136 34.8755 21.0734 34.2708 22.1496 33.1945C23.2259 32.1183 23.8305 30.6585 23.8305 29.1365C23.8305 27.6144 23.2259 26.1546 22.1496 25.0784C21.0734 24.0021 19.6136 23.3975 18.0915 23.3975C16.5695 23.3975 15.1097 24.0021 14.0335 25.0784C12.9572 26.1546 12.3525 27.6144 12.3525 29.1365Z" stroke="#C3E9D8" stroke-width="1.5" stroke-linecap="round" stroke-linejoin="round"></path>
<path d="M12.5476 15.4595C12.3196 14.6091 12.2903 13.7178 12.462 12.8543C12.6336 11.9909 13.0016 11.1785 13.5375 10.48C14.0734 9.78153 14.7628 9.21571 15.5523 8.82631C16.3419 8.43691 17.2105 8.23438 18.0908 8.23438C18.9712 8.23438 19.8397 8.43691 20.6293 8.82631C21.4188 9.21571 22.1082 9.78153 22.6441 10.48C23.18 11.1785 23.548 11.9909 23.7196 12.8543C23.8913 13.7178 23.862 14.6091 23.6341 15.4595" stroke="#C3E9D8" stroke-width="1.5" stroke-linecap="round" stroke-linejoin="round"></path>
<path d="M24.7786 3.396C20.2366 3.06 18.0916 8.2335 18.0916 8.2335V1.125" stroke="#C3E9D8" stroke-width="1.5" stroke-linecap="round" stroke-linejoin="round"></path>
</svg>